<svg xmlns="http://www.w3.org/2000/svg" xmlns:xlink="http://www.w3.org/1999/xlink" viewBox="0 0 239.65 110"><defs><style>.cls-1{fill:#fff;}</style><symbol id="New_Symbol" data-name="New Symbol" viewBox="0 0 239.65 110"><path class="cls-1" d="M18.74,3.08V88.53H3V3.08H18.74m3-3H0V91.53H21.74V.08Z"/><path class="cls-1" d="M57.12,3V88.45H41.37V3H57.12m3-3H38.37V91.45H60.12V0Z"/><path class="cls-1" d="M110,58.31l-.06-10.14L105.1,56.3h-3.31L97,48.52v9.79H90.13V36.06h6.16l7.25,11.86,7-11.86h6.17l.06,22.25Z"/><path class="cls-1" d="M133.66,50.24v8.07h-7.5V50.14l-8.39-14.08h7.91l4.55,7.69,4.57-7.69h7.25Z"/><path class="cls-1" d="M90.13,66.43h7.5V82.85h10v5.82H90.13Z"/><path class="cls-1" d="M109.73,66.43h7.5V88.67h-7.5Z"/><path class="cls-1" d="M141.7,79.17a5.33,5.33,0,0,1,1.08,3.37,5.11,5.11,0,0,1-2.42,4.52q-2.42,1.6-7,1.61H120.85V66.43h11.89q4.44,0,6.72,1.59a4.92,4.92,0,0,1,2.27,4.22A5.16,5.16,0,0,1,141,75a5.67,5.67,0,0,1-2.3,2A6.72,6.72,0,0,1,141.7,79.17Zm-13.47-7.5V75h3.49c1.63,0,2.45-.56,2.45-1.66s-.82-1.65-2.45-1.65Zm7,10c0-1.17-.83-1.75-2.48-1.75h-4.51v3.5h4.51C134.39,83.43,135.22,82.84,135.22,81.68Z"/><path class="cls-1" d="M155,83.08h-2v5.59h-7.5V66.43h10.71a13.23,13.23,0,0,1,5.37,1A8.23,8.23,0,0,1,165.18,79a7.6,7.6,0,0,1-3.12,2.83l4.67,6.86h-8Zm3-10.19a3.37,3.37,0,0,0-2.29-.68h-2.73v5.21h2.73a3.37,3.37,0,0,0,2.29-.68,2.82,2.82,0,0,0,0-3.85Z"/><path class="cls-1" d="M184.24,84.79h-8.45l-1.5,3.88h-7.62l9.72-22.24h7.37l9.73,22.24h-7.76Zm-2.07-5.4L180,73.8l-2.16,5.59Z"/><path class="cls-1" d="M204.22,83.08h-2v5.59h-7.5V66.43H205.4a13.29,13.29,0,0,1,5.37,1,7.71,7.71,0,0,1,4.77,7.38A7.89,7.89,0,0,1,214.46,79a7.67,7.67,0,0,1-3.12,2.83L216,88.67h-8Zm3-10.19a3.37,3.37,0,0,0-2.29-.68h-2.73v5.21h2.73a3.37,3.37,0,0,0,2.29-.68,2.82,2.82,0,0,0,0-3.85Z"/><path class="cls-1" d="M231.26,80.6v8.07h-7.49V80.5l-8.39-14.07h7.91l4.54,7.69,4.58-7.69h7.24Z"/><path class="cls-1" d="M37.93,21.55V107H22.19V21.55H37.93m3-3H19.19V110H40.93V18.55Z"/><path class="cls-1" d="M76.3,21.55V107H60.56V21.55H76.3m3-3H57.56V110H79.3V18.55Z"/></symbol></defs><title>Asset 3</title><g id="Layer_2" data-name="Layer 2"><g id="Layer_1-2" data-name="Layer 1"><use width="239.65" height="110" xlink:href="#New_Symbol"/></g></g></svg>